<svg width="398" height="400" viewBox="0 0 398 400" fill="none" xmlns="http://www.w3.org/2000/svg">
<path d="M397.476 199.619C397.476 309.351 308.52 398.305 198.788 398.305C89.0561 398.305 0.10144 309.351 0.10144 199.619C0.10144 89.8867 89.0561 0.933286 198.788 0.933286C308.52 0.933286 397.476 89.8867 397.476 199.619Z" fill="#231F20"/>
<path d="M161.02 114.035C169.077 118.819 181.02 121.923 194.948 122.405V155.855C194.948 161.973 199.924 166.951 206.043 166.951C212.161 166.951 217.14 161.973 217.14 155.855V147.296C218.216 147.644 219.364 147.833 220.553 147.833C226.672 147.833 231.648 142.855 231.648 136.736V116.473C233.428 115.703 235.059 114.875 236.552 113.999C238.575 127.403 241.661 164.933 226.299 222.847C221.005 244.544 219.991 281.979 224.287 297.023L225.056 299.695C226.939 306.209 229.283 314.319 227.897 316.16C227.707 316.413 226.952 316.708 225.452 316.708H172.125C170.625 316.708 169.872 316.413 169.681 316.161C168.296 314.32 170.639 306.212 172.521 299.697L173.289 297.023C177.588 281.984 176.573 244.549 171.261 222.772C155.928 164.976 158.997 127.469 161.02 114.035V114.035ZM198.788 82.5279C222.967 82.5279 239.819 91.0293 239.819 98.6586C239.819 102.719 234.696 107.177 226.449 110.292C224.955 110.857 223.967 112.287 223.967 113.885V136.736C223.967 138.619 222.435 140.151 220.553 140.151C218.672 140.151 217.14 138.619 217.14 136.736C217.14 134.615 215.42 132.895 213.299 132.895C211.177 132.895 209.457 134.615 209.457 136.736V155.855C209.457 157.737 207.925 159.269 206.043 159.269C204.161 159.269 202.629 157.737 202.629 155.855V118.631C202.629 116.509 200.911 114.789 198.788 114.789C174.609 114.789 157.76 106.288 157.76 98.6586C157.76 91.0293 174.609 82.5279 198.788 82.5279V82.5279ZM165.141 297.565C162.069 308.192 159.852 315.872 163.541 320.777C165.345 323.175 168.232 324.391 172.125 324.391H225.452C229.345 324.391 232.233 323.175 234.037 320.776C237.727 315.869 235.508 308.191 232.436 297.561L231.673 294.912C227.729 281.103 228.803 244.996 233.741 224.741C251.364 158.323 245.372 118.219 243.412 108.577C246.097 105.565 247.5 102.219 247.5 98.6586C247.5 85.0839 226.559 74.8466 198.788 74.8466C171.02 74.8466 150.079 85.0839 150.079 98.6586C150.079 102.223 151.529 105.555 154.16 108.535C152.26 117.696 146.025 157.604 163.817 224.668C168.776 245.001 169.849 281.108 165.903 294.912L165.141 297.565" fill="white"/>
<mask id="mask0" mask-type="alpha" maskUnits="userSpaceOnUse" x="0" y="2" width="398" height="398">
<path d="M397.375 200.685C397.375 310.417 308.419 399.372 198.687 399.372C88.9546 399.372 0 310.417 0 200.685C0 90.9534 88.9546 1.99997 198.687 1.99997C308.419 1.99997 397.375 90.9534 397.375 200.685Z" fill="#C4C4C4"/>
</mask>
<g mask="url(#mask0)">
<path d="M81.7734 392.24L77.3574 389.375L120.229 323.335C127.021 312.873 134.045 302.055 137.451 289.988C139.601 282.368 140.464 273.82 140.167 263.091C139.612 243.028 135.289 222.916 131.111 203.467C127.944 188.732 124.669 173.496 123.003 158.237C121.856 147.752 121.443 137.037 121.044 126.675C120.336 108.329 119.605 89.3587 114.735 71.5494C112.156 62.1201 108.336 52.5201 104.643 43.2268C95.8414 21.1068 86.7401 -1.78652 93.1774 -24.9199L98.2494 -23.5066C92.2868 -2.07991 100.665 18.9868 109.535 41.2801C113.281 50.7068 117.156 60.4534 119.813 70.1601C124.843 88.5534 125.585 107.829 126.304 126.472C126.7 136.743 127.109 147.364 128.236 157.665C129.873 172.655 133.119 187.756 136.257 202.36C140.487 222.044 144.86 242.396 145.429 262.945C145.741 274.223 144.816 283.269 142.517 291.417C138.895 304.252 131.651 315.411 124.645 326.201L81.7734 392.24Z" fill="white"/>
<path d="M104.469 401.408L101.156 397.317C109.611 390.469 115.925 380.753 122.032 371.357C130.319 358.611 138.885 345.429 153.024 338.875C166.831 332.473 182.123 334.172 196.911 335.815C203.289 336.524 209.885 337.256 216.197 337.305C221.944 337.365 227.843 336.812 233.547 336.291C240.936 335.616 248.576 334.919 256.197 335.431C273.051 336.567 289.181 343.644 303.413 349.887L358.141 373.896L356.027 378.717L301.299 354.708C286.786 348.341 271.779 341.757 255.844 340.684C248.639 340.2 241.209 340.877 234.025 341.533C228.193 342.065 222.164 342.619 216.157 342.569C209.573 342.519 202.84 341.771 196.329 341.047C181.612 339.412 167.711 337.869 155.237 343.651C142.473 349.568 134.689 361.545 126.447 374.227C120.116 383.965 113.571 394.036 104.469 401.408" fill="white"/>
<path d="M390.835 350.145C354.527 344.189 324.813 335.093 302.52 323.111C269.632 305.432 252.473 281.431 251.523 251.771C251.075 237.775 254.308 224.583 257.435 211.825C259.559 203.163 261.755 194.205 262.724 185.188C264.255 170.935 264.988 156.389 265.696 142.324C266.131 133.704 266.58 124.791 267.208 116.004C267.753 108.396 268.431 98.928 273.601 91.4813C280.088 82.1426 290.712 74.2707 300.985 66.6574C309.073 60.6667 317.439 54.4666 323.505 47.7333C340.288 29.0799 354.125 8.23996 364.632 -14.24L369.401 -12.0133C358.673 10.9333 344.548 32.2267 327.417 51.2533C320.997 58.3867 312.417 64.7386 304.119 70.888C294.188 78.2466 283.917 85.8573 277.925 94.4839C273.579 100.744 272.957 109.413 272.46 116.38C271.835 125.111 271.387 133.996 270.955 142.588C270.241 156.728 269.505 171.348 267.957 185.751C266.951 195.117 264.713 204.248 262.548 213.08C259.505 225.492 256.359 238.327 256.784 251.603C257.671 279.249 273.897 301.749 305.012 318.473C326.793 330.18 355.955 339.088 391.687 344.949L390.835 350.145" fill="white"/>
<path d="M244.128 65.2146C237.171 65.2159 230.303 63.9666 223.62 62.7466C221.355 62.3466 219.012 61.92 216.724 61.5466C200.987 59.04 186.116 59.1333 169.927 61.8533C157.148 63.9906 145.315 60.9466 138.271 53.7199C132.399 47.6933 129.988 39.1599 128.051 32.3065L111.949 -24.6668L117.016 -26.1067L133.116 30.88C134.984 37.48 137.103 44.9733 142.041 50.0533C147.881 56.0399 157.98 58.5199 169.056 56.6533C185.596 53.8799 201.459 53.7866 217.552 56.3466C219.897 56.72 222.268 57.1599 224.561 57.5732C232.659 59.0399 240.307 60.4399 248.064 59.7999C272.056 57.8132 289.179 36.6932 297.249 24.2932C298.36 22.5866 299.509 20.8266 300.687 19.0266C311.459 2.58658 324.864 -17.8801 330.069 -35.4935L335.117 -34.0001C329.693 -15.6401 316.052 5.18661 305.091 21.9199C303.916 23.7066 302.769 25.4532 301.663 27.1599C281.635 57.9466 259.756 64.1092 248.497 65.0399C247.039 65.1612 245.581 65.2146 244.128 65.2146" fill="white"/>
<path d="M-36.7212 215.011L-38.9985 210.265C-17.5012 199.952 4.7268 189.288 28.3361 183.087C32.4975 181.993 36.7548 181.025 40.8721 180.089C50.9121 177.807 61.2934 175.447 70.6521 171.144C85.3788 164.373 95.2601 153.057 97.0854 140.873C98.6121 130.672 94.6961 120.188 91.2401 110.936L60.7921 29.4267L65.7241 27.5867L96.1708 109.095C99.6681 118.456 104.02 130.105 102.291 141.653C100.203 155.599 89.1974 168.412 72.8521 175.928C62.9934 180.459 52.3415 182.881 42.0401 185.223C37.9641 186.149 33.7495 187.107 29.6735 188.179C6.5508 194.252 -15.4479 204.805 -36.7212 215.011" fill="white"/>
<path d="M45.7068 381.119L41.4335 378.045C66.0241 343.855 86.0281 306.537 100.889 267.132C104.732 256.945 108.364 246.097 106.949 235.32C105.7 225.812 98.7655 215.101 88.3708 213.979C82.1815 213.312 75.8201 216.124 69.8361 219.061C63.0188 222.408 56.1028 226.016 49.4148 229.505C23.1641 243.2 -3.97985 257.361 -33.8225 260.529L-34.3785 255.295C-5.52921 252.232 21.1655 238.307 46.9801 224.839C53.6961 221.335 60.6415 217.711 67.5161 214.336C74.1921 211.057 81.3481 207.927 88.9348 208.745C94.9481 209.395 100.433 212.499 104.799 217.723C108.739 222.436 111.355 228.441 112.169 234.636C113.743 246.619 109.715 258.652 105.815 268.989C90.7908 308.828 70.5681 346.553 45.7068 381.119Z" fill="white"/>
<path d="M15.5561 380.407L10.6187 378.579C19.0521 355.813 30.7534 334.453 45.3961 315.092C46.5974 313.504 47.8201 311.927 49.0441 310.348C53.7041 304.337 58.5214 298.123 61.9681 291.364C66.7468 281.989 68.0828 272.583 65.7281 264.873C64.9441 262.308 63.1908 259.765 61.3481 259.896C60.5961 259.945 59.6868 260.435 58.7428 260.975C53.0241 264.247 47.4654 268.093 42.0894 271.812C37.1881 275.204 32.1201 278.709 26.8748 281.829C13.1521 289.987 0.878746 293.604 -10.6439 292.88L-10.3146 287.625C0.116076 288.289 11.4027 284.904 24.1854 277.304C29.2747 274.277 34.2668 270.824 39.0948 267.483C44.5614 263.7 50.2148 259.789 56.1281 256.405C57.5681 255.583 59.1294 254.768 60.9974 254.643C66.1468 254.312 69.4734 259.111 70.7628 263.336C73.5174 272.356 72.0601 283.159 66.6574 293.755C62.9868 300.956 58.0134 307.371 53.2041 313.573C51.9934 315.135 50.7841 316.696 49.5948 318.268C35.2628 337.219 23.8107 358.125 15.5561 380.407" fill="white"/>
<path d="M34.9148 149.253C32.9174 149.253 30.9867 149.12 29.2174 148.996L-17.2133 145.764L-16.8479 140.513L29.5828 143.744C33.9361 144.048 38.8694 144.391 42.8881 142.643C51.0627 139.087 53.5614 127.941 53.1734 118.696C52.7134 107.712 49.8374 96.7841 47.0561 86.2147L28.5134 15.7733L33.6041 14.4267L52.1468 84.8748C55.0001 95.7148 57.9494 106.923 58.4334 118.476C58.6574 123.809 58.3467 141.659 44.9881 147.469C41.7414 148.883 38.2361 149.253 34.9148 149.253" fill="white"/>
<path d="M231.152 33.8533C228.548 33.8533 226.024 33.6799 223.7 33.5199L185.14 30.8533C179.744 30.4799 173.028 30.0132 167.605 26.4666C159.839 21.3999 157.523 12.5199 155.281 3.93322C154.181 -0.280116 153.043 -4.64014 151.275 -8.36014L156.028 -10.6134C158.011 -6.4534 159.212 -1.84012 160.375 2.59988C162.455 10.5732 164.42 18.1066 170.484 22.0666C174.759 24.8532 180.467 25.2532 185.504 25.5999L224.063 28.2666C230.264 28.6932 237.292 29.1865 242.959 26.3065C246.775 24.3732 249.833 20.9865 252.793 17.7065C266.213 2.82653 278.32 -11.9868 279.049 -29.4668L284.309 -29.2534C283.507 -10.0134 270.793 5.59991 256.703 21.2266C253.573 24.6932 250.028 28.6266 245.34 30.9999C240.851 33.2799 235.873 33.8533 231.152 33.8533Z" fill="white"/>
<path d="M454.859 185.211C420.264 173.383 384.197 168.064 347.661 169.391L346.32 169.44C329.228 170.072 309.857 170.789 297.941 157.795C292.679 152.056 289.879 144.36 289.843 135.539C289.811 127.636 292.041 119.364 296.124 112.247C303.409 99.5468 315.016 90.3094 326.24 81.3774L328.628 79.4748C350.108 62.3068 370.731 43.6267 389.924 23.9601L393.692 27.6267C374.348 47.4667 353.563 66.2894 331.913 83.5868L329.519 85.496C318.681 94.1213 307.476 103.039 300.691 114.867C294.003 126.525 292.243 143.793 301.821 154.236C312.093 165.439 330.173 164.768 346.125 164.179L347.469 164.129C384.652 162.775 421.356 168.192 456.561 180.229L454.859 185.211" fill="white"/>
<path d="M389.496 317.348C363.219 317.348 337.867 307.023 315.367 297.859C310.705 295.96 305.423 293.809 301.363 289.867C296.792 285.427 294.495 279.509 292.533 273.831C285.092 252.279 280.403 229.825 278.595 207.096C278.317 203.603 278.212 199.925 280.209 196.74C283.704 191.168 291.348 190.911 295.023 190.787C314.771 190.119 335.192 189.431 354.883 194.608C360.813 196.168 366.627 198.259 372.249 200.281C375.86 201.581 379.595 202.925 383.289 204.1C405.851 211.271 430.141 213.145 453.536 209.513L454.343 214.716C430.149 218.469 405.028 216.533 381.693 209.116C377.905 207.912 374.124 206.551 370.467 205.235C364.952 203.251 359.249 201.2 353.544 199.7C334.599 194.719 314.569 195.395 295.2 196.048C290.773 196.197 286.435 196.724 284.669 199.537C283.527 201.36 283.625 203.956 283.843 206.679C285.615 228.965 290.213 250.98 297.509 272.112C299.264 277.192 301.289 282.456 305.031 286.091C308.356 289.32 312.929 291.183 317.353 292.984C340.532 302.424 366.805 313.121 393.409 312.003L393.631 317.261C392.251 317.32 390.872 317.348 389.496 317.348" fill="white"/>
<path d="M144.843 422.428L139.815 420.868C145.76 401.703 162.903 389.64 181.452 377.971C189.077 373.175 197.72 367.737 207.596 366.399C213.793 365.559 219.895 366.392 225.795 367.197L252.056 370.785C257.444 371.521 263.015 372.283 268.337 374.303C282.219 379.571 291.077 391.591 300.416 405.595L296.036 408.515C287.209 395.279 278.893 383.94 266.469 379.224C261.708 377.417 256.439 376.697 251.344 376.001L225.081 372.413C219.531 371.655 213.791 370.869 208.304 371.616C199.557 372.801 191.428 377.915 184.256 382.427C166.575 393.549 150.256 404.98 144.843 422.428" fill="white"/>
<path d="M391.14 291.159C377.672 291.159 364.417 287.216 352.427 283.649C342.119 280.584 332.411 277.132 326.932 268.681C322.353 261.619 322.169 252.975 322.372 244.727C322.413 243.052 322.469 240.757 323.553 238.691C326.255 233.536 332.652 233.264 337.229 233.511C367.503 235.128 398.061 238.176 428.057 242.569L427.295 247.777C397.457 243.408 367.06 240.377 336.948 238.767C332.043 238.508 329.188 239.279 328.216 241.135C327.703 242.115 327.667 243.571 327.635 244.857C327.452 252.281 327.588 260.016 331.349 265.817C335.853 272.764 344.6 275.829 353.928 278.604C368.516 282.943 385.049 287.86 400.884 285.076L401.796 290.261C398.243 290.885 394.683 291.159 391.14 291.159" fill="white"/>
<path d="M404.547 152.721C398.918 152.721 393.343 151.679 388.287 150.732C373.178 147.904 354.373 144.384 341.271 132.241C339.935 131.003 338.593 129.595 337.835 127.688C335.935 122.909 338.819 118.028 340.37 115.405L358.094 85.4066C363.652 75.9986 370.57 64.2906 381.555 57.8399L384.219 62.3867C374.41 68.1427 368.15 78.7373 362.627 88.0839L344.901 118.084C343.28 120.827 341.896 123.652 342.727 125.744C343.099 126.676 343.967 127.563 344.85 128.381C356.836 139.489 374.812 142.853 389.255 145.557C395.75 146.772 402.464 148.032 408.95 147.187L409.628 152.408C407.938 152.628 406.24 152.721 404.547 152.721" fill="white"/>
<path d="M384.26 132.719C380.211 132.719 375.928 132.561 371.909 130.819C367.06 128.716 363.749 124.433 363.477 119.909C363.244 116.043 365.071 112.667 367.079 109.593C370.588 104.224 374.653 99.192 379.164 94.6374L382.905 98.3414C378.643 102.645 374.801 107.4 371.485 112.473C369.972 114.789 368.591 117.255 368.732 119.593C368.908 122.508 371.505 124.905 374.003 125.988C377.132 127.345 380.84 127.433 384.364 127.455C392.548 127.448 400.804 126.872 408.903 125.743L409.629 130.956C401.293 132.119 392.793 132.712 384.368 132.719C384.332 132.719 384.296 132.719 384.26 132.719" fill="white"/>
</g>
</svg>
