<svg width="965" height="219" viewBox="0 0 965 219" fill="none" xmlns="http://www.w3.org/2000/svg">
<path d="M489.467 130.591V88.924C489.467 88.1814 489.72 87.5639 490.213 87.0679L499.4 77.8813C499.893 77.3867 500.52 77.1386 501.253 77.1386H530.947C531.693 77.1386 532.307 77.3867 532.813 77.8813L541.813 86.8826C542.307 87.3786 542.547 87.9959 542.547 88.7386V95.0493C542.547 95.7306 542.293 96.3333 541.76 96.8587C541.24 97.3853 540.64 97.6467 539.96 97.6467H532.44C531.76 97.6467 531.147 97.3853 530.627 96.8587C530.107 96.3333 529.84 95.7306 529.84 95.0493V93.3786C529.84 92.6359 529.587 92.0186 529.093 91.5226L526.307 88.7386C525.76 88.1813 525.133 87.9027 524.453 87.9027H507.933C507.253 87.9027 506.64 88.1813 506.08 88.7386L502.933 91.8946C502.373 92.4506 502.093 93.0693 502.093 93.7493V125.673C502.093 126.415 502.373 127.033 502.933 127.528L506.08 130.776C506.693 131.272 507.32 131.519 507.933 131.519H524.453C525.08 131.519 525.693 131.272 526.307 130.776L529.093 127.9C529.587 127.468 529.84 126.848 529.84 126.044V124.467C529.84 123.724 530.107 123.107 530.627 122.611C531.147 122.116 531.76 121.868 532.44 121.868H539.96C540.64 121.868 541.24 122.116 541.76 122.611C542.293 123.107 542.547 123.724 542.547 124.467V130.776C542.547 131.459 542.307 132.045 541.813 132.54L532.813 141.541C532.373 142.099 531.76 142.376 530.947 142.376H501.253C500.52 142.376 499.893 142.099 499.4 141.541L490.213 132.355C489.72 131.86 489.467 131.272 489.467 130.591Z" fill="#231F20"/>
<path d="M564.76 87.8106H550.467C549.72 87.8106 549.107 87.5639 548.613 87.0679C548.12 86.5732 547.867 85.9546 547.867 85.2119V79.7373C547.867 79.056 548.12 78.4533 548.613 77.9279C549.107 77.4026 549.72 77.1386 550.467 77.1386H596.867C597.613 77.1386 598.227 77.4026 598.72 77.9279C599.214 78.4533 599.467 79.056 599.467 79.7373V85.2119C599.467 85.9546 599.214 86.5732 598.72 87.0679C598.227 87.5639 597.613 87.8106 596.867 87.8106H582.573C581.893 87.8106 581.293 88.0746 580.773 88.5999C580.24 89.1253 579.973 89.7293 579.973 90.4093V139.779C579.973 140.46 579.733 141.063 579.24 141.588C578.747 142.112 578.12 142.376 577.387 142.376H569.96C569.214 142.376 568.6 142.112 568.107 141.588C567.6 141.063 567.36 140.46 567.36 139.779V90.4093C567.36 89.7293 567.093 89.1253 566.573 88.5999C566.04 88.0746 565.44 87.8106 564.76 87.8106Z" fill="#231F20"/>
<path d="M644.12 130.776L647.28 127.528C647.827 127.033 648.107 126.415 648.107 125.673V93.7493C648.107 93.0693 647.827 92.4506 647.28 91.8946L644.12 88.7386C643.56 88.1813 642.947 87.9027 642.267 87.9027H624.267C623.587 87.9027 622.96 88.1813 622.4 88.7386L619.253 91.8946C618.693 92.4506 618.413 93.0693 618.413 93.7493V125.673C618.413 126.415 618.693 127.033 619.253 127.528L622.4 130.776C623.027 131.272 623.64 131.519 624.267 131.519H642.267C642.88 131.519 643.507 131.272 644.12 130.776ZM605.8 130.591V88.924C605.8 88.1814 606.04 87.5639 606.533 87.0679L615.72 77.8813C616.213 77.3867 616.84 77.1386 617.587 77.1386H648.947C649.693 77.1386 650.307 77.3867 650.8 77.8813L659.987 87.0679C660.48 87.5639 660.733 88.1814 660.733 88.924V130.591C660.733 131.272 660.48 131.86 659.987 132.355L650.8 141.541C650.373 142.099 649.747 142.376 648.947 142.376H617.587C616.84 142.376 616.213 142.099 615.72 141.541L606.533 132.355C606.04 131.86 605.8 131.272 605.8 130.591Z" fill="#231F20"/>
<path d="M718.253 77.8813C718.747 78.4373 718.987 79.056 718.987 79.7373V139.779C718.987 140.46 718.747 141.077 718.253 141.635C717.747 142.129 717.133 142.376 716.4 142.376H708.973C708.227 142.376 707.613 142.129 707.12 141.635C706.613 141.077 706.373 140.46 706.373 139.779V90.5946C706.373 89.8519 706.093 89.2346 705.533 88.7386C705.04 88.2439 704.48 87.9959 703.867 87.9959H697.56C696.933 87.9959 696.32 88.2133 695.693 88.6467L681.773 102.752C681.227 103.248 680.947 103.865 680.947 104.607V139.779C680.947 140.46 680.693 141.077 680.2 141.635C679.707 142.129 679.093 142.376 678.347 142.376H670.92C670.173 142.376 669.56 142.129 669.067 141.635C668.573 141.077 668.32 140.46 668.32 139.779V100.152C668.32 99.4734 668.573 98.8853 669.067 98.3893L689.48 77.9732C689.92 77.4172 690.533 77.1386 691.333 77.1386H716.4C717.133 77.1386 717.747 77.3867 718.253 77.8813Z" fill="#231F20"/>
<path d="M764.08 107.02C764.76 107.02 765.347 106.772 765.84 106.275C766.213 105.964 766.467 105.591 766.587 105.155V89.6747C766.467 89.24 766.213 88.868 765.84 88.5574C765.347 87.9974 764.76 87.7173 764.08 87.7173H745.24C744.56 87.7173 743.947 87.9974 743.387 88.5574L741.72 90.2346C741.227 90.7332 740.973 91.3559 740.973 92.1012V102.636C740.973 103.445 741.227 104.068 741.72 104.503L743.387 106.275C744 106.772 744.627 107.02 745.24 107.02H764.08ZM776.707 77.1386C777.387 77.1386 777.973 77.3867 778.467 77.8813C779.027 78.3773 779.307 78.9946 779.307 79.7373V139.779C779.307 140.46 779.053 141.077 778.56 141.635C778.067 142.129 777.44 142.376 776.707 142.376H769.28C768.533 142.376 767.92 142.129 767.427 141.635V141.541H767.333C766.84 141.047 766.587 140.428 766.587 139.685V119.269C766.467 118.837 766.213 118.467 765.84 118.156C765.347 117.661 764.76 117.413 764.08 117.413H747.467C746.733 117.413 746.08 117.692 745.52 118.249L741.44 122.888C741 123.323 740.787 123.909 740.787 124.652V139.779C740.787 140.46 740.507 141.077 739.96 141.635C739.453 142.129 738.867 142.376 738.187 142.376H730.68C729.987 142.376 729.373 142.129 728.813 141.635C728.32 141.077 728.08 140.46 728.08 139.779V121.775C728.08 121.157 728.293 120.568 728.72 120.012L733.093 115.187C733.587 114.692 733.827 114.105 733.827 113.423C733.827 112.743 733.587 112.156 733.093 111.66L729.187 107.669C728.693 107.175 728.453 106.588 728.453 105.907V88.2747C728.453 87.532 728.693 86.9147 729.187 86.4187L737.64 77.8813C738.133 77.3867 738.747 77.1386 739.493 77.1386H776.707Z" fill="#231F20"/>
<path d="M828.4 105.257V92.08C828.4 91.336 828.16 90.7186 827.653 90.2226L825.987 88.5533C825.427 87.996 824.813 87.7173 824.133 87.7173H805.293C804.613 87.7173 804.013 87.9812 803.48 88.5066C802.96 89.0319 802.693 89.636 802.693 90.316V106.927C802.693 107.669 802.96 108.289 803.48 108.783C804.013 109.279 804.613 109.525 805.293 109.525H824.133C824.747 109.525 825.373 109.279 825.987 108.783L827.653 107.02C828.16 106.588 828.4 106 828.4 105.257ZM840.187 86.4187C840.68 86.9147 840.933 87.532 840.933 88.2747V108.969C840.933 109.588 840.68 110.207 840.187 110.824L831.653 119.363C831.213 119.919 830.6 120.197 829.8 120.197H805.293C804.613 120.197 804.013 120.445 803.48 120.94C802.96 121.436 802.693 122.053 802.693 122.796V139.779C802.693 140.46 802.453 141.063 801.96 141.588C801.453 142.112 800.84 142.376 800.093 142.376H792.68C791.933 142.376 791.307 142.112 790.813 141.588C790.32 141.063 790.08 140.46 790.08 139.779V87.532H788.773C788.213 87.532 787.733 87.3467 787.333 86.9747C786.933 86.604 786.733 86.1094 786.733 85.4907V79.18C786.733 78.624 786.933 78.1453 787.333 77.7426C787.733 77.34 788.213 77.1386 788.773 77.1386H829.88C830.627 77.1386 831.253 77.3867 831.747 77.8813L840.187 86.4187Z" fill="#231F20"/>
<path d="M901.987 138.108C902.547 138.975 902.6 139.856 902.133 140.753C901.667 141.651 900.907 142.099 899.853 142.099H891.413C890.48 142.099 889.773 141.697 889.28 140.892L873.6 116.207C873.093 115.404 872.387 115.001 871.453 115.001H865.706C864.96 115.001 864.347 115.248 863.853 115.744C863.36 116.239 863.106 116.857 863.106 117.599V139.5C863.106 140.181 862.84 140.784 862.32 141.309C861.787 141.836 861.186 142.099 860.506 142.099H852.987C852.307 142.099 851.707 141.836 851.187 141.309C850.653 140.784 850.4 140.181 850.4 139.5V87.3467H849.187C848.573 87.3467 848.053 87.1466 847.653 86.7426C847.253 86.3413 847.053 85.8613 847.053 85.3053V78.9027C847.053 78.3453 847.253 77.8667 847.653 77.464C848.053 77.0613 848.573 76.86 849.187 76.86H860.506C861.186 76.86 861.787 77.124 862.32 77.6493C862.84 78.1746 863.106 78.7787 863.106 79.4587V100.711C863.106 101.391 863.36 101.995 863.853 102.519C864.347 103.045 864.96 103.308 865.706 103.308H871.453C872.387 103.308 873.133 102.876 873.693 102.009L887.973 78.1587C888.533 77.2933 889.28 76.86 890.2 76.86H898.373C899.426 76.86 900.2 77.3093 900.693 78.2053C901.187 79.1026 901.187 79.9853 900.693 80.8506L884.64 108.041C884.146 108.969 884.173 109.867 884.733 110.732L901.987 138.108Z" fill="#231F20"/>
<path d="M941.336 117.506C942.203 117.506 942.894 117.136 943.422 116.393C943.951 115.65 944.059 114.847 943.747 113.98L937.069 94.8633C937.002 94.4922 936.758 94.3066 936.324 94.3066C935.959 94.3066 935.701 94.4922 935.579 94.8633L928.901 114.072C928.59 114.941 928.725 115.728 929.267 116.439C929.823 117.151 930.54 117.506 931.407 117.506H941.336ZM932.328 77.1388H940.32C940.808 77.1388 941.296 77.2934 941.756 77.6035C942.217 77.9137 942.542 78.3147 942.731 78.8105L964.621 138.851C964.933 139.718 964.838 140.52 964.35 141.262C963.849 142.006 963.145 142.376 962.21 142.376H954.882C953.703 142.376 952.904 141.789 952.471 140.614L948.38 129.571C947.96 128.456 947.147 127.901 945.969 127.901H926.68C925.488 127.901 924.689 128.456 924.269 129.571L920.178 140.614C919.745 141.789 918.945 142.376 917.753 142.376H910.439C909.504 142.376 908.8 142.006 908.299 141.262C907.797 140.52 907.703 139.718 908.028 138.851L929.917 78.8105C930.107 78.3147 930.432 77.9137 930.893 77.6035C931.353 77.2934 931.841 77.1388 932.328 77.1388Z" fill="#231F20"/>
<path d="M312.427 114.119C312.427 113.376 312.173 112.759 311.68 112.263L310.013 110.592C309.453 110.036 308.84 109.759 308.16 109.759H289.32C288.64 109.759 288.013 110.005 287.467 110.5C286.96 111.056 286.72 111.676 286.72 112.356V128.967C286.72 129.709 286.96 130.328 287.467 130.823C288.013 131.319 288.64 131.565 289.32 131.565H308.16C308.773 131.565 309.387 131.319 310.013 130.823L311.68 129.059C312.173 128.628 312.427 128.039 312.427 127.296V114.119ZM324.213 108.459C324.707 108.955 324.947 109.572 324.947 110.315V131.009C324.947 131.627 324.707 132.245 324.213 132.864L315.667 141.401C315.24 141.959 314.613 142.237 313.813 142.237H276.693C276.013 142.237 275.4 141.989 274.84 141.495C274.347 140.937 274.093 140.32 274.093 139.639V87.392H272.893C272.267 87.392 271.747 87.208 271.32 86.836C270.947 86.4653 270.76 85.9707 270.76 85.352V79.0413C270.76 78.484 270.947 78.02 271.32 77.6493C271.747 77.2173 272.267 76.9999 272.893 76.9999H317.707C318.387 76.9999 318.973 77.2787 319.48 77.836C320.027 78.332 320.307 78.9187 320.307 79.5973V85.0732C320.307 85.8146 320.027 86.4346 319.48 86.9292C318.973 87.4239 318.387 87.6719 317.707 87.6719H289.413C288.667 87.6719 288.053 87.92 287.56 88.4146C287.053 88.9706 286.813 89.5907 286.813 90.2693V96.6732C286.813 97.2919 287.053 97.88 287.56 98.436C288.053 98.8693 288.573 99.1173 289.133 99.1773H313.907C314.653 99.1773 315.267 99.4266 315.76 99.9213L324.213 108.459Z" fill="#231F20"/>
<path d="M365.667 117.367C366.52 117.367 367.227 116.996 367.747 116.253C368.267 115.511 368.387 114.708 368.08 113.84L361.387 94.724C361.333 94.3534 361.08 94.1666 360.653 94.1666C360.28 94.1666 360.027 94.3534 359.907 94.724L353.227 113.933C352.92 114.8 353.04 115.589 353.6 116.299C354.16 117.012 354.867 117.367 355.733 117.367H365.667ZM356.667 76.9999H364.64C365.133 76.9999 365.613 77.1547 366.08 77.464C366.547 77.7747 366.867 78.176 367.053 78.6706L388.947 138.711C389.267 139.577 389.173 140.381 388.68 141.123C388.173 141.865 387.467 142.237 386.547 142.237H379.213C378.027 142.237 377.227 141.651 376.8 140.475L372.72 129.429C372.28 128.316 371.48 127.76 370.307 127.76H351C349.827 127.76 349.013 128.316 348.587 129.429L344.507 140.475C344.067 141.651 343.267 142.237 342.093 142.237H334.76C333.827 142.237 333.12 141.865 332.627 141.123C332.133 140.381 332.04 139.577 332.347 138.711L354.253 78.6706C354.427 78.176 354.76 77.7747 355.227 77.464C355.68 77.1547 356.16 76.9999 356.667 76.9999Z" fill="#231F20"/>
<path d="M437.027 105.117V91.9399C437.027 91.1986 436.773 90.58 436.28 90.0854L434.613 88.4146C434.053 87.8573 433.44 87.5786 432.76 87.5786H413.92C413.24 87.5786 412.627 87.8426 412.107 88.3666C411.573 88.8933 411.32 89.4973 411.32 90.176V106.788C411.32 107.529 411.573 108.149 412.107 108.644C412.627 109.14 413.24 109.385 413.92 109.385H432.76C433.373 109.385 433.987 109.14 434.613 108.644L436.28 106.881C436.773 106.448 437.027 105.859 437.027 105.117ZM448.813 86.2786C449.307 86.7759 449.547 87.3919 449.547 88.1346V108.829C449.547 109.448 449.307 110.068 448.813 110.685L440.267 119.224C439.84 119.78 439.213 120.057 438.413 120.057H413.92C413.24 120.057 412.627 120.307 412.107 120.801C411.573 121.296 411.32 121.915 411.32 122.656V139.639C411.32 140.32 411.067 140.923 410.573 141.447C410.08 141.973 409.467 142.237 408.72 142.237H401.293C400.547 142.237 399.933 141.973 399.44 141.447C398.947 140.923 398.693 140.32 398.693 139.639V87.392H397.4C396.84 87.392 396.36 87.208 395.96 86.836C395.56 86.4653 395.36 85.9707 395.36 85.352V79.0413C395.36 78.484 395.56 78.0067 395.96 77.6027C396.36 77.2013 396.84 76.9999 397.4 76.9999H438.507C439.253 76.9999 439.867 77.248 440.36 77.7426L448.813 86.2786Z" fill="#231F20"/>
<path d="M218.747 109.619C218.747 170.013 169.787 218.973 109.4 218.973C48.9987 218.973 0.0386963 170.013 0.0386963 109.619C0.0386963 49.2241 48.9987 0.264099 109.4 0.264099C169.787 0.264099 218.747 49.2241 218.747 109.619Z" fill="#231F20"/>
<path d="M88.6068 62.5147C93.0401 65.1481 99.6134 66.856 107.28 67.1214V85.5321C107.28 88.9001 110.014 91.6387 113.387 91.6387C116.76 91.6387 119.493 88.9001 119.493 85.5321V80.8214C120.08 81.012 120.72 81.116 121.373 81.116C124.747 81.116 127.48 78.3761 127.48 75.0094V63.8574C128.453 63.4334 129.36 62.976 130.173 62.4947C131.293 69.872 132.987 90.5281 124.533 122.403C121.627 134.345 121.067 154.948 123.427 163.228L123.854 164.699C124.894 168.284 126.173 172.748 125.413 173.761C125.307 173.9 124.893 174.063 124.067 174.063H94.7202C93.8935 174.063 93.4801 173.9 93.3734 173.761C92.6134 172.748 93.9068 168.285 94.9335 164.7L95.3601 163.228C97.7201 154.951 97.1734 134.348 94.2401 122.363C85.8041 90.552 87.4934 69.9094 88.6068 62.5147ZM109.4 45.1748C122.707 45.1748 131.973 49.8534 131.973 54.0521C131.973 56.2868 129.16 58.74 124.613 60.4547C123.8 60.7654 123.254 61.5534 123.254 62.4321V75.0094C123.254 76.0454 122.413 76.888 121.373 76.888C120.333 76.888 119.493 76.0454 119.493 75.0094C119.493 73.8414 118.547 72.8947 117.373 72.8947C116.213 72.8947 115.267 73.8414 115.267 75.0094V85.5321C115.267 86.5681 114.427 87.4107 113.387 87.4107C112.347 87.4107 111.507 86.5681 111.507 85.5321V65.044C111.507 63.876 110.56 62.9308 109.4 62.9308C96.0801 62.9308 86.8121 58.2508 86.8121 54.0521C86.8121 49.8534 96.0801 45.1748 109.4 45.1748ZM90.8801 163.527C89.1841 169.376 87.9641 173.603 89.9948 176.303C90.9868 177.623 92.5735 178.291 94.7202 178.291H124.067C126.213 178.291 127.8 177.623 128.8 176.301C130.827 173.601 129.6 169.375 127.907 163.524L127.493 162.067C125.32 154.467 125.907 134.593 128.627 123.445C138.333 86.8893 135.027 64.8174 133.96 59.5107C135.427 57.8534 136.2 56.0108 136.2 54.0521C136.2 46.5801 124.68 40.9468 109.4 40.9468C94.1068 40.9468 82.5841 46.5801 82.5841 54.0521C82.5841 56.0134 83.3829 57.848 84.8309 59.488C83.7855 64.5294 80.3534 86.4947 90.1467 123.405C92.8801 134.596 93.4668 154.469 91.2935 162.067L90.8801 163.527Z" fill="white"/>
<mask id="mask0" mask-type="alpha" maskUnits="userSpaceOnUse" x="0" y="0" width="219" height="219">
<path d="M218.747 109.619C218.747 170.013 169.787 218.973 109.4 218.973C48.9987 218.973 0.0386963 170.013 0.0386963 109.619C0.0386963 49.2241 48.9987 0.264092 109.4 0.264092C169.787 0.264092 218.747 49.2241 218.747 109.619Z" fill="#231F20"/>
</mask>
<g mask="url(#mask0)">
<path d="M44.9895 215.635L42.5602 214.057L66.1561 177.711C69.8948 171.952 73.7601 165.997 75.6348 159.356C76.8175 155.163 77.2934 150.459 77.1294 144.553C76.8241 133.511 74.4455 122.441 72.1442 111.736C70.4015 103.627 68.6002 95.2413 67.6815 86.8427C67.0509 81.072 66.8242 75.1746 66.6042 69.472C66.2149 59.3746 65.8122 48.9333 63.1322 39.132C61.7122 33.9413 59.6108 28.6559 57.5775 23.5453C52.7335 11.3653 47.7242 -1.22937 51.2668 -13.9667L54.0589 -13.1894C50.7762 -1.39337 55.3881 10.2 60.2694 22.4747C62.3321 27.66 64.4642 33.0213 65.9268 38.3666C68.6948 48.4893 69.1042 59.1 69.5002 69.36C69.7175 75.0133 69.9428 80.8586 70.5628 86.5279C71.4641 94.7786 73.2508 103.089 74.9775 111.128C77.3055 121.961 79.7122 133.163 80.0255 144.473C80.1975 150.679 79.6881 155.659 78.4228 160.143C76.4295 167.207 72.4429 173.348 68.5869 179.288L44.9895 215.635Z" fill="white"/>
<path d="M57.4814 220.68L55.6573 218.428C60.312 214.66 63.7868 209.312 67.1481 204.141C71.7081 197.125 76.4241 189.871 84.2054 186.263C91.8001 182.74 100.227 183.675 108.36 184.579C111.867 184.969 115.507 185.372 118.973 185.399C122.133 185.432 125.387 185.128 128.52 184.84C132.587 184.469 136.8 184.085 140.987 184.368C150.267 184.993 159.147 188.888 166.973 192.324L197.093 205.539L195.933 208.192L165.813 194.977C157.827 191.473 149.56 187.849 140.8 187.259C136.827 186.992 132.747 187.365 128.787 187.725C125.573 188.019 122.253 188.324 118.947 188.296C115.333 188.268 111.627 187.857 108.04 187.459C99.9467 186.559 92.2933 185.709 85.424 188.892C78.3987 192.148 74.1147 198.74 69.5774 205.72C66.0934 211.08 62.4908 216.623 57.4814 220.68Z" fill="white"/>
<path d="M215.093 192.465C195.107 189.188 178.76 184.181 166.48 177.587C148.387 167.857 138.947 154.647 138.413 138.323C138.173 130.619 139.947 123.359 141.667 116.337C142.84 111.569 144.053 106.64 144.587 101.676C145.427 93.8307 145.827 85.8253 146.213 78.084C146.453 73.34 146.707 68.4347 147.053 63.5987C147.347 59.4107 147.72 54.2 150.573 50.1013C154.133 44.9613 159.987 40.6293 165.64 36.4386C170.093 33.14 174.693 29.7294 178.04 26.02C187.267 15.76 194.893 4.28395 200.667 -8.08804L203.293 -6.86134C197.387 5.77065 189.613 17.4854 180.187 27.9587C176.653 31.884 171.933 35.3826 167.36 38.7666C161.893 42.8173 156.253 47.0067 152.947 51.7547C150.56 55.1987 150.213 59.9706 149.947 63.8053C149.6 68.6106 149.347 73.5014 149.107 78.2307C148.72 86.012 148.32 94.0587 147.467 101.985C146.907 107.141 145.68 112.167 144.48 117.027C142.813 123.859 141.08 130.923 141.32 138.229C141.8 153.447 150.733 165.829 167.853 175.035C179.84 181.477 195.893 186.38 215.56 189.607L215.093 192.465Z" fill="white"/>
<path d="M134.347 35.6453C130.52 35.6453 126.733 34.9586 123.067 34.2893C121.813 34.0639 120.52 33.8293 119.267 33.6279C110.6 32.2466 102.413 32.2986 93.5067 33.7933C86.4747 34.972 79.9627 33.2987 76.0853 29.32C72.8533 26.004 71.5267 21.3066 70.4601 17.5333L61.5988 -13.8267L64.3868 -14.6146L73.2494 16.7453C74.2774 20.3839 75.4427 24.508 78.1601 27.2986C81.3747 30.5973 86.9334 31.9573 93.0267 30.9346C102.133 29.4093 110.867 29.3546 119.72 30.7666C121.013 30.9733 122.32 31.2106 123.573 31.4386C128.04 32.2493 132.24 33.0133 136.52 32.6613C149.72 31.5706 159.147 19.9507 163.587 13.12C164.2 12.1813 164.827 11.2147 165.48 10.2253C171.4 1.17467 178.787 -10.0893 181.653 -19.7813L184.427 -18.9601C181.44 -8.85874 173.933 2.60403 167.907 11.8134C167.253 12.8 166.627 13.764 166.013 14.6999C154.987 31.648 142.947 35.0373 136.747 35.5493C135.947 35.6146 135.147 35.6453 134.347 35.6453Z" fill="white"/>
<path d="M-20.2266 118.091L-21.4799 115.479C-9.64919 109.803 2.58541 103.933 15.5787 100.52C17.8694 99.9173 20.2134 99.3853 22.4787 98.8693C28.0041 97.6133 33.7187 96.3147 38.8694 93.9467C46.9747 90.22 52.4134 83.992 53.4174 77.2867C54.2587 71.672 52.1028 65.9013 50.2001 60.8093L33.4428 15.9506L36.1574 14.9373L52.9148 59.7959C54.8388 64.9479 57.2348 71.36 56.2828 77.716C55.1334 85.3906 49.076 92.4427 40.08 96.58C34.6547 99.0734 28.7921 100.407 23.1214 101.695C20.8788 102.205 18.5588 102.732 16.3148 103.323C3.58947 106.665 -8.5186 112.473 -20.2266 118.091Z" fill="white"/>
<path d="M25.1401 209.513L22.7881 207.821C36.3228 189.004 47.3321 168.465 55.5121 146.777C57.6268 141.171 59.6254 135.2 58.8467 129.268C58.1601 124.035 54.3428 118.14 48.6215 117.523C45.2148 117.155 41.7135 118.703 38.4202 120.32C34.6682 122.161 30.8615 124.148 27.1815 126.068C12.7335 133.605 -2.20658 141.4 -18.6319 143.143L-18.9373 140.263C-3.05992 138.576 11.6321 130.912 25.8401 123.499C29.5374 121.571 33.3602 119.576 37.1428 117.719C40.8175 115.915 44.7561 114.191 48.9321 114.641C52.2415 114.999 55.2602 116.708 57.6642 119.583C59.8308 122.176 61.2722 125.483 61.7202 128.892C62.5855 135.487 60.3681 142.109 58.2228 147.799C49.9534 169.725 38.8228 190.489 25.1401 209.513Z" fill="white"/>
<path d="M8.54541 209.121L5.82809 208.115C10.4694 195.587 16.9094 183.829 24.9694 173.173C25.6307 172.299 26.3028 171.431 26.9761 170.563C29.5415 167.255 32.1934 163.833 34.0894 160.113C36.7201 154.955 37.4548 149.776 36.1601 145.533C35.7281 144.121 34.7628 142.723 33.7494 142.795C33.3348 142.821 32.8348 143.091 32.3148 143.388C29.1668 145.189 26.1081 147.305 23.1494 149.353C20.4521 151.22 17.6627 153.149 14.7747 154.865C7.22271 159.356 0.468155 161.347 -5.87451 160.948L-5.69326 158.056C0.0480723 158.421 6.25876 156.559 13.2948 152.375C16.0961 150.709 18.8441 148.808 21.5001 146.971C24.5094 144.888 27.6215 142.736 30.8761 140.873C31.6681 140.42 32.5268 139.972 33.5548 139.903C36.3895 139.721 38.2202 142.363 38.9308 144.688C40.4468 149.652 39.6441 155.599 36.6708 161.429C34.6508 165.393 31.9134 168.924 29.2668 172.337C28.6001 173.197 27.9347 174.056 27.28 174.921C19.392 185.352 13.0881 196.859 8.54541 209.121Z" fill="white"/>
<path d="M19.2 81.8987C18.1014 81.8987 17.0388 81.8241 16.0641 81.7574L-9.4906 79.9786L-9.2893 77.088L16.2654 78.8667C18.6614 79.0333 21.376 79.2227 23.588 78.26C28.0867 76.3027 29.4627 70.1694 29.2494 65.0801C28.996 59.0347 27.4134 53.0201 25.8827 47.2027L15.6774 8.43072L18.4787 7.69334L28.684 46.4654C30.2547 52.432 31.8787 58.6 32.144 64.96C32.2667 67.8947 32.0974 77.7186 24.744 80.9173C22.9574 81.6946 21.028 81.8987 19.2 81.8987Z" fill="white"/>
<path d="M127.2 18.3867C125.773 18.3867 124.387 18.2893 123.107 18.2013L101.88 16.7333C98.9067 16.528 95.2134 16.272 92.2268 14.3214C87.9561 11.5294 86.6815 6.64265 85.4481 1.91732C84.8428 -0.40135 84.2161 -2.79998 83.2428 -4.84531L85.8588 -6.09063C86.9508 -3.79729 87.6121 -1.26395 88.2507 1.18672C89.3961 5.57205 90.48 9.71463 93.8134 11.896C96.1734 13.4333 99.3067 13.6507 102.08 13.8427L123.307 15.3107C126.72 15.5467 130.587 15.8147 133.707 14.2333C135.8 13.168 137.493 11.3013 139.12 9.49596C146.507 1.3053 153.16 -6.84267 153.573 -16.4667L156.467 -16.3453C156.027 -5.75731 149.027 2.8374 141.267 11.4361C139.547 13.3454 137.6 15.5093 135.013 16.8173C132.547 18.0693 129.8 18.3867 127.2 18.3867Z" fill="white"/>
<path d="M250.333 101.688C231.293 95.1787 211.44 92.252 191.333 92.9813L190.587 93.008C181.187 93.356 170.52 93.752 163.96 86.5987C161.067 83.4413 159.533 79.2053 159.507 74.3493C159.493 70 160.72 65.448 162.96 61.5307C166.973 54.54 173.36 49.4559 179.547 44.5399L180.853 43.4933C192.68 34.0467 204.027 23.7667 214.587 12.9373L216.667 14.96C206.013 25.8747 194.573 36.236 182.667 45.756L181.347 46.808C175.387 51.5547 169.213 56.4626 165.48 62.972C161.8 69.3893 160.827 78.8934 166.107 84.6414C171.76 90.8067 181.707 90.4374 190.48 90.1134L191.227 90.0867C211.693 89.34 231.893 92.3214 251.267 98.9467L250.333 101.688Z" fill="white"/>
<path d="M214.36 174.415C199.893 174.415 185.933 168.732 173.56 163.688C170.987 162.644 168.08 161.459 165.854 159.289C163.334 156.845 162.067 153.589 160.987 150.464C156.894 138.601 154.307 126.244 153.32 113.735C153.16 111.811 153.107 109.787 154.2 108.035C156.133 104.968 160.333 104.825 162.36 104.757C173.227 104.391 184.467 104.011 195.307 106.861C198.573 107.719 201.773 108.871 204.867 109.984C206.853 110.699 208.907 111.439 210.933 112.085C223.36 116.032 236.72 117.063 249.6 115.064L250.04 117.928C236.733 119.993 222.907 118.928 210.067 114.847C207.973 114.183 205.893 113.435 203.88 112.709C200.853 111.617 197.707 110.488 194.573 109.663C184.147 106.921 173.12 107.295 162.454 107.653C160.027 107.736 157.627 108.025 156.667 109.573C156.027 110.577 156.08 112.005 156.2 113.504C157.187 125.771 159.707 137.887 163.733 149.517C164.693 152.315 165.813 155.211 167.867 157.211C169.693 158.988 172.214 160.013 174.654 161.005C187.414 166.201 201.867 172.089 216.507 171.473L216.627 174.368C215.867 174.4 215.107 174.415 214.36 174.415Z" fill="white"/>
<path d="M79.7027 232.249L76.9347 231.391C80.208 220.843 89.6428 214.204 99.8534 207.781C104.053 205.141 108.8 202.149 114.24 201.412C117.653 200.949 121.013 201.408 124.253 201.852L138.707 203.827C141.68 204.231 144.747 204.649 147.667 205.763C155.307 208.661 160.187 215.277 165.333 222.984L162.92 224.592C158.053 217.307 153.48 211.065 146.64 208.471C144.027 207.476 141.12 207.08 138.32 206.697L123.867 204.723C120.813 204.305 117.653 203.872 114.627 204.283C109.813 204.936 105.347 207.751 101.4 210.233C91.6667 216.355 82.6813 222.645 79.7027 232.249Z" fill="white"/>
<path d="M215.267 160.001C207.854 160.001 200.547 157.831 193.96 155.868C188.28 154.181 182.934 152.281 179.92 147.629C177.4 143.743 177.307 138.985 177.413 134.445C177.44 133.524 177.467 132.261 178.067 131.123C179.547 128.287 183.067 128.136 185.587 128.272C202.254 129.163 219.067 130.84 235.573 133.257L235.16 136.124C218.734 133.72 202.013 132.051 185.44 131.165C182.733 131.023 181.16 131.447 180.627 132.468C180.347 133.008 180.32 133.809 180.307 134.517C180.213 138.604 180.28 142.86 182.347 146.053C184.827 149.877 189.64 151.564 194.773 153.091C202.813 155.479 211.907 158.185 220.627 156.653L221.12 159.507C219.174 159.851 217.214 160.001 215.267 160.001Z" fill="white"/>
<path d="M222.64 83.8066C219.547 83.8066 216.467 83.2333 213.693 82.712C205.373 81.156 195.027 79.2187 187.813 72.5361C187.08 71.8534 186.333 71.0786 185.92 70.0293C184.88 67.3986 186.467 64.7121 187.32 63.2694L197.067 46.7574C200.133 41.5801 203.933 35.136 209.987 31.5893L211.453 34.088C206.053 37.256 202.613 43.0867 199.573 48.232L189.813 64.7427C188.92 66.252 188.16 67.8081 188.613 68.9587C188.813 69.4721 189.293 69.96 189.787 70.4107C196.387 76.524 206.28 78.3761 214.227 79.8641C217.8 80.5334 221.493 81.2253 225.067 80.7613L225.44 83.6346C224.507 83.756 223.573 83.8066 222.64 83.8066Z" fill="white"/>
<path d="M211.48 72.7974C209.24 72.7974 206.893 72.7107 204.68 71.7521C202.013 70.5947 200.187 68.2387 200.04 65.748C199.907 63.62 200.907 61.7613 202.013 60.0707C203.947 57.1147 206.187 54.3453 208.667 51.8386L210.733 53.8773C208.387 56.2466 206.267 58.8626 204.44 61.656C203.613 62.9293 202.853 64.2866 202.933 65.5733C203.027 67.1786 204.453 68.4973 205.827 69.0933C207.547 69.84 209.587 69.8893 211.533 69.9C216.04 69.8973 220.573 69.58 225.04 68.9587L225.44 71.828C220.853 72.468 216.173 72.7947 211.533 72.7974C211.52 72.7974 211.493 72.7974 211.48 72.7974Z" fill="white"/>
</g>
</svg>
