<svg width="148" height="148" viewBox="0 0 148 148" fill="none" xmlns="http://www.w3.org/2000/svg">
<path d="M148 73.5001C148 114.093 115.093 147 74.5051 147C33.9076 147 1.00012 114.093 1.00012 73.5001C1.00012 32.9073 33.9076 5.86778e-05 74.5051 5.86778e-05C115.093 5.86778e-05 148 32.9073 148 73.5001Z" fill="#231F20"/>
<path d="M60.044 41.6044C63.0208 43.3876 67.4344 44.5441 72.5821 44.7238V57.1902C72.5821 59.4708 74.4174 61.3252 76.6824 61.3252C78.9474 61.3252 80.7827 59.4708 80.7827 57.1902V54.0005C81.1766 54.1296 81.6063 54.2 82.0449 54.2C84.3099 54.2 86.1452 52.3447 86.1452 50.065V42.5136C86.7987 42.2265 87.4075 41.9168 87.9536 41.5909C88.7056 46.5863 89.8426 60.5732 84.1667 82.1565C82.215 90.2433 81.8391 104.194 83.4237 109.801L83.7102 110.796C84.4085 113.224 85.2678 116.247 84.7575 116.933C84.6859 117.027 84.4084 117.137 83.8534 117.137H64.1488C63.5938 117.137 63.3162 117.027 63.2446 116.933C62.7343 116.247 63.6027 113.225 64.292 110.797L64.5785 109.801C66.1631 104.196 65.7961 90.245 63.8265 82.1294C58.1622 60.5894 59.2965 46.6116 60.044 41.6044V41.6044ZM74.0056 29.863C82.9402 29.863 89.1622 33.0311 89.1622 35.8741C89.1622 37.3873 87.2732 39.0485 84.2204 40.2095C83.6743 40.4199 83.3073 40.9535 83.3073 41.5485V50.065C83.3073 50.7665 82.7432 51.3371 82.0449 51.3371C81.3466 51.3371 80.7827 50.7665 80.7827 50.065C80.7827 49.2741 80.147 48.633 79.3592 48.633C78.5803 48.633 77.9447 49.2741 77.9447 50.065V57.1902C77.9447 57.8917 77.3807 58.4623 76.6824 58.4623C75.9841 58.4623 75.42 57.8917 75.42 57.1902V43.3171C75.42 42.5262 74.7844 41.8861 74.0056 41.8861C65.062 41.8861 58.839 38.7172 58.839 35.8741C58.839 33.0311 65.062 29.863 74.0056 29.863V29.863ZM61.5704 110.003C60.4317 113.964 59.6125 116.826 60.976 118.654C61.6421 119.548 62.7075 120 64.1488 120H83.8534C85.2947 120 86.3601 119.548 87.0315 118.653C88.3923 116.825 87.5687 113.963 86.4317 110.001L86.1542 109.014C84.6949 103.868 85.0888 90.4112 86.9152 82.8625C93.4326 58.1093 91.2124 43.1636 90.4962 39.5703C91.481 38.4481 92.0002 37.2004 92.0002 35.8741C92.0002 30.8146 84.2652 27.0001 74.0056 27.0001C63.737 27.0001 56.0002 30.8146 56.0002 35.8741C56.0002 37.2022 56.5365 38.4445 57.5087 39.555C56.8069 42.9686 54.5024 57.842 61.078 82.8354C62.9133 90.413 63.3073 103.87 61.848 109.014L61.5704 110.003" fill="white"/>
<mask id="mask0" mask-type="alpha" maskUnits="userSpaceOnUse" x="0" y="0" width="148" height="148">
<path d="M148 73.6188C148 114.271 115.045 147.227 74.3977 147.227C33.7409 147.227 0.7854 114.271 0.7854 73.6188C0.7854 32.9665 33.7409 0.0110074 74.3977 0.0110074C115.045 0.0110074 148 32.9665 148 73.6188Z" fill="#231F20"/>
</mask>
<g mask="url(#mask0)">
<path d="M31.0422 144.979L29.407 143.918L45.2897 119.452C47.8063 115.576 50.4081 111.568 51.6699 107.097C52.466 104.275 52.7864 101.109 52.676 97.1336C52.4705 89.7007 50.8694 82.2498 49.3203 75.0439C48.1473 69.5855 46.9349 63.9412 46.3165 58.288C45.892 54.4037 45.7394 50.4341 45.5913 46.5956C45.3293 39.7989 45.0582 32.7708 43.2543 26.1734C42.2985 22.6795 40.884 19.1219 39.5154 15.6818C36.2548 7.48332 32.883 -0.99427 35.2676 -9.5679L37.1469 -9.04467C34.9373 -1.10465 38.0416 6.69899 41.3273 14.9612C42.7157 18.4515 44.1509 22.0602 45.1354 25.6582C46.9986 32.4719 47.2741 39.6141 47.5406 46.5202C47.6869 50.3255 47.8386 54.26 48.2559 58.0761C48.8626 63.6297 50.0652 69.2237 51.2275 74.6346C52.7945 81.9267 54.4145 89.4664 54.6254 97.0797C54.7412 101.257 54.3983 104.609 53.5466 107.627C52.2048 112.382 49.5214 116.516 46.9259 120.514L31.0422 144.979" fill="white"/>
<path d="M39.4507 148.375L38.2229 146.859C41.356 144.323 43.6949 140.723 45.9575 137.243C49.0268 132.52 52.2012 127.637 57.4389 125.209C62.5509 122.837 68.223 123.467 73.6977 124.075C76.0581 124.338 78.5081 124.609 80.8416 124.627C82.9686 124.649 85.1585 124.445 87.2676 124.251C90.0049 124.001 92.841 123.743 95.6591 123.933C101.906 124.354 107.883 126.976 113.151 129.289L133.425 138.183L132.644 139.969L112.37 131.075C106.994 128.716 101.43 126.277 95.5334 125.879C92.8589 125.7 90.1126 125.951 87.4471 126.193C85.2842 126.391 83.0494 126.596 80.8236 126.577C78.3915 126.558 75.8965 126.282 73.4822 126.014C68.0345 125.408 62.883 124.836 58.2592 126.978C53.5303 129.17 50.6468 133.607 47.5926 138.306C45.2475 141.913 42.8226 145.644 39.4507 148.375" fill="white"/>
<path d="M145.541 129.384C132.088 127.178 121.085 123.808 112.819 119.369C100.64 112.82 94.2859 103.928 93.9269 92.9397C93.7653 87.754 94.959 82.8673 96.1167 78.1411C96.9065 74.9317 97.7233 71.6138 98.0823 68.2724C98.6477 62.9917 98.9169 57.6031 99.1771 52.3924C99.3387 49.1991 99.5093 45.8973 99.7426 42.6422C99.9401 39.8232 100.191 36.3158 102.112 33.5569C104.508 30.0971 108.448 27.1812 112.253 24.3605C115.251 22.1401 118.347 19.8444 120.6 17.3476C126.811 10.4415 131.944 2.7168 135.83 -5.61093L137.598 -4.78523C133.622 3.7175 128.39 11.6028 122.045 18.6525C119.667 21.2947 116.49 23.6497 113.411 25.9275C109.732 28.654 105.935 31.4739 103.709 34.6698C102.103 36.988 101.87 40.2001 101.69 42.7813C101.457 46.0158 101.286 49.3078 101.125 52.4911C100.864 57.7288 100.595 63.1452 100.021 68.4807C99.6438 71.9512 98.8181 75.3338 98.0104 78.6051C96.8885 83.2038 95.7219 87.9586 95.8834 92.8768C96.2065 103.12 102.22 111.455 113.743 117.651C121.812 121.988 132.617 125.288 145.855 127.459L145.541 129.384" fill="white"/>
<path d="M91.1895 23.8264C88.6137 23.8264 86.0649 23.3642 83.5969 22.9137C82.7532 22.762 81.8827 22.6041 81.039 22.4685C75.2054 21.5387 69.6949 21.5738 63.6997 22.5798C58.9664 23.3732 54.5831 22.2469 51.9732 19.5688C49.7977 17.3368 48.9047 14.1749 48.1868 11.635L42.2221 -9.47372L44.0988 -10.0041L50.0643 11.1046C50.7562 13.5538 51.5406 16.3298 53.3697 18.2082C55.5335 20.4286 59.2751 21.344 63.3766 20.6556C69.5064 19.6289 75.3849 19.5921 81.3442 20.5425C82.2148 20.6817 83.0942 20.8414 83.9379 20.9949C86.9444 21.5405 89.7716 22.0548 92.6525 21.8179C101.538 21.0837 107.883 13.2622 110.871 8.66442C111.284 8.0326 111.706 7.38193 112.146 6.71599C116.131 0.623895 121.103 -6.95801 123.032 -13.4818L124.899 -12.929C122.889 -6.12971 117.836 1.58601 113.779 7.78491C113.339 8.44904 112.918 9.09787 112.505 9.7279C105.083 21.1358 96.9783 23.4172 92.805 23.7618C92.2665 23.8058 91.728 23.8264 91.1895 23.8264" fill="white"/>
<path d="M-12.8554 79.3214L-13.699 77.5631C-5.73563 73.7425 2.49961 69.7919 11.2456 67.4943C12.7874 67.0887 14.3652 66.7306 15.89 66.3833C19.6092 65.5378 23.4558 64.6637 26.9227 63.0698C32.3785 60.5613 36.0394 56.3691 36.7152 51.8557C37.2815 48.0764 35.8303 44.1921 34.5496 40.7646L23.2701 10.5698L25.0973 9.8877L36.3769 40.0825C37.6719 43.5504 39.2847 47.8664 38.6439 52.1447C37.8703 57.3106 33.793 62.0574 27.7376 64.8423C24.0858 66.5206 20.1396 67.418 16.3226 68.285C14.8131 68.6287 13.2515 68.9832 11.741 69.3808C3.17546 71.6308 -4.97462 75.5403 -12.8554 79.3214Z" fill="white"/>
<path d="M17.6814 140.859L16.0983 139.72C25.2086 127.054 32.6191 113.229 38.1252 98.6306C39.5486 94.8567 40.8939 90.8378 40.3697 86.8449C39.9075 83.3223 37.3381 79.3545 33.487 78.939C31.1939 78.6913 28.8372 79.7333 26.6204 80.8219C24.0949 82.0614 21.5326 83.3986 19.0555 84.6909C9.33043 89.7644 -0.725893 95.0111 -11.782 96.1841L-11.9875 94.2455C-1.30028 93.1102 8.58906 87.9515 18.1526 82.9615C20.6413 81.6638 23.2145 80.3212 25.7606 79.071C28.2341 77.8567 30.8852 76.6962 33.6961 76.9996C35.9237 77.2401 37.9556 78.3906 39.5738 80.3256C41.0322 82.0712 42.0023 84.297 42.3039 86.5919C42.8864 91.0308 41.3938 95.4886 39.9498 99.3181C34.3836 114.077 26.8914 128.054 17.6814 140.859" fill="white"/>
<path d="M6.51138 140.595L4.68232 139.917C7.80646 131.485 12.1413 123.571 17.5665 116.398C18.0117 115.809 18.4641 115.225 18.9173 114.641C20.6441 112.414 22.4291 110.111 23.7053 107.607C25.4761 104.135 25.9706 100.649 25.0991 97.7933C24.8084 96.8428 24.1586 95.9014 23.4765 95.9498C23.1974 95.9678 22.8608 96.1491 22.5108 96.3492C20.3919 97.5617 18.333 98.986 16.3415 100.365C14.5259 101.621 12.6483 102.92 10.7044 104.075C5.62105 107.097 1.07449 108.437 -3.19482 108.169L-3.07282 106.222C0.79173 106.468 4.97221 105.215 9.70822 102.398C11.5938 101.277 13.4435 99.9975 15.2313 98.7608C17.2569 97.3589 19.3517 95.9103 21.5424 94.6565C22.0755 94.3514 22.6535 94.0499 23.3455 94.0032C25.2535 93.8812 26.4858 95.6591 26.9641 97.2243C27.9846 100.566 27.4443 104.568 25.4429 108.493C24.0832 111.161 22.2406 113.538 20.4591 115.835C20.0104 116.414 19.5625 116.992 19.1219 117.575C13.8124 124.596 9.5691 132.341 6.51138 140.595" fill="white"/>
<path d="M13.6831 54.9601C12.9436 54.9601 12.2283 54.9099 11.5723 54.865L-5.62885 53.6677L-5.49335 51.722L11.7078 52.9192C13.3206 53.0314 15.1478 53.1588 16.6367 52.5109C19.6648 51.1934 20.591 47.065 20.4474 43.6393C20.2769 39.5701 19.2116 35.5216 18.1813 31.6059L11.312 5.50801L13.1976 5.01168L20.0669 31.1095C21.1241 35.1258 22.2173 39.2775 22.3959 43.5585C22.4784 45.5338 22.3645 52.1464 17.4149 54.2995C16.2122 54.8227 14.9136 54.9601 13.6831 54.9601Z" fill="white"/>
<path d="M86.3791 12.2095C85.4188 12.2095 84.4854 12.144 83.6238 12.0847L69.3359 11.0966C67.3345 10.9584 64.8485 10.7861 62.8382 9.47309C59.9635 7.59377 59.1056 4.30448 58.2754 1.1238C57.8679 -0.436917 57.4461 -2.05146 56.791 -3.4282L58.5518 -4.26643C59.2869 -2.72276 59.732 -1.01754 60.1619 0.632029C60.9328 3.58384 61.6624 6.37226 63.9061 7.84054C65.4947 8.87533 67.6037 9.02167 69.4705 9.15091L83.7584 10.139C86.056 10.2979 88.6587 10.4783 90.7588 9.41385C92.1678 8.69676 93.3077 7.44026 94.4026 6.22507C99.3746 0.711845 103.853 -4.77264 104.131 -11.2507L106.079 -11.169C105.783 -4.04207 101.071 1.74312 95.8475 7.53098C94.6897 8.81617 93.3794 10.2727 91.6383 11.1532C89.9779 11.9959 88.1292 12.2095 86.3791 12.2095" fill="white"/>
<path d="M169.261 68.2805C156.445 63.899 143.082 61.9291 129.548 62.42L129.045 62.438C122.718 62.6722 115.538 62.9387 111.123 58.1237C109.175 55.9985 108.143 53.1472 108.125 49.8786C108.116 46.951 108.942 43.887 110.45 41.2502C113.151 36.5447 117.45 33.1226 121.614 29.8136L122.494 29.1091C130.454 22.7504 138.092 15.8308 145.2 8.54151L146.6 9.90298C139.429 17.2498 131.729 24.2241 123.714 30.6321L122.826 31.3402C118.814 34.5353 114.659 37.8389 112.146 42.2204C109.669 46.5399 109.014 52.9372 112.568 56.8063C116.373 60.9562 123.068 60.7076 128.973 60.4895L129.476 60.4716C143.252 59.969 156.849 61.9758 169.89 66.4353L169.261 68.2805" fill="white"/>
<path d="M145.047 117.234C135.31 117.234 125.913 113.409 117.585 110.013C115.852 109.311 113.896 108.513 112.397 107.053C110.701 105.407 109.848 103.216 109.121 101.112C106.366 93.1273 104.625 84.8094 103.961 76.3892C103.853 75.0941 103.817 73.7318 104.553 72.5525C105.854 70.4883 108.682 70.3923 110.046 70.3465C117.36 70.0997 124.926 69.8439 132.222 71.7627C134.421 72.3398 136.575 73.1152 138.657 73.8646C139.995 74.3457 141.377 74.8438 142.741 75.2791C151.105 77.9356 160.098 78.6294 168.768 77.2841L169.064 79.2118C160.107 80.602 150.8 79.885 142.158 77.1378C140.749 76.6908 139.348 76.1873 137.993 75.6991C135.956 74.9641 133.838 74.2038 131.729 73.6483C124.711 71.8031 117.288 72.0544 110.109 72.2959C108.475 72.3515 106.86 72.5462 106.213 73.5882C105.783 74.264 105.819 75.2252 105.899 76.234C106.563 84.4908 108.26 92.6462 110.97 100.475C111.616 102.358 112.37 104.307 113.752 105.653C114.982 106.85 116.678 107.54 118.321 108.208C126.909 111.705 136.638 115.668 146.492 115.254L146.573 117.202C146.062 117.224 145.55 117.234 145.047 117.234" fill="white"/>
<path d="M54.4081 156.163L52.5449 155.585C54.7482 148.485 61.0989 144.016 67.9718 139.693C70.7988 137.916 73.9938 135.902 77.6555 135.406C79.9531 135.094 82.2148 135.403 84.3957 135.702L94.1243 137.031C96.1257 137.303 98.1899 137.585 100.155 138.334C105.298 140.285 108.583 144.739 112.047 149.926L110.423 151.008C107.147 146.105 104.068 141.904 99.4643 140.157C97.7053 139.488 95.7488 139.221 93.8641 138.963L84.1354 137.634C82.0801 137.353 79.9531 137.062 77.9158 137.338C74.6759 137.778 71.6694 139.672 69.0128 141.343C62.4612 145.464 56.413 149.698 54.4081 156.163" fill="white"/>
<path d="M145.658 107.532C140.668 107.532 135.75 106.071 131.316 104.75C127.493 103.614 123.894 102.335 121.866 99.204C120.169 96.5879 120.106 93.3857 120.178 90.3298C120.196 89.7096 120.214 88.8597 120.618 88.0932C121.614 86.1843 123.984 86.0829 125.68 86.1744C136.898 86.774 148.216 87.903 159.326 89.5302L159.048 91.4598C147.991 89.8416 136.737 88.7179 125.581 88.122C123.759 88.026 122.7 88.3113 122.341 88.9988C122.153 89.3623 122.135 89.9017 122.126 90.3782C122.063 93.129 122.108 95.9938 123.499 98.1433C125.168 100.717 128.408 101.853 131.863 102.88C137.275 104.488 143.396 106.309 149.266 105.278L149.598 107.199C148.287 107.43 146.968 107.532 145.658 107.532" fill="white"/>
<path d="M150.621 56.2444C148.539 56.2444 146.465 55.8585 144.599 55.5076C138.998 54.4602 132.034 53.1562 127.179 48.658C126.685 48.1985 126.182 47.677 125.904 46.9707C125.204 45.2 126.272 43.3916 126.847 42.4206L133.407 31.3062C135.471 27.8212 138.029 23.4837 142.104 21.0964L143.091 22.7783C139.456 24.9107 137.141 28.8354 135.094 32.2987L128.525 43.4122C127.923 44.4282 127.412 45.4756 127.717 46.2501C127.852 46.5956 128.175 46.9241 128.507 47.2274C132.949 51.3424 139.609 52.589 144.958 53.5906C147.363 54.0411 149.849 54.5069 152.254 54.1946L152.505 56.1286C151.877 56.2103 151.249 56.2444 150.621 56.2444" fill="white"/>
<path d="M143.109 48.8339C141.601 48.8339 140.021 48.7756 138.532 48.1303C136.737 47.3513 135.507 45.7654 135.408 44.0889C135.319 42.6566 135.992 41.4055 136.737 40.2675C138.038 38.2777 139.546 36.4136 141.215 34.7264L142.606 36.0986C141.027 37.6935 139.6 39.4543 138.37 41.3345C137.814 42.1916 137.302 43.1052 137.356 43.9713C137.419 45.0519 138.379 45.9395 139.304 46.3407C140.461 46.8433 141.834 46.8765 143.145 46.8837C146.178 46.8819 149.23 46.6683 152.236 46.2501L152.505 48.1814C149.418 48.6122 146.268 48.8321 143.145 48.8339C143.136 48.8339 143.118 48.8339 143.109 48.8339Z" fill="white"/>
</g>
</svg>
